<?xml version="1.0" encoding="UTF-8" standalone="no"?>
<!-- Created with Inkscape (http://www.inkscape.org/) -->

<svg
   width="50mm"
   height="50mm"
   viewBox="0 0 50.000003 50"
   version="1.1"
   id="svg5"
   xml:space="preserve"
   sodipodi:docname="earth.svg"
   inkscape:version="1.2.2 (b0a8486541, 2022-12-01)"
   xmlns:inkscape="http://www.inkscape.org/namespaces/inkscape"
   xmlns:sodipodi="http://sodipodi.sourceforge.net/DTD/sodipodi-0.dtd"
   xmlns="http://www.w3.org/2000/svg"
   xmlns:svg="http://www.w3.org/2000/svg"><sodipodi:namedview
     id="namedview7"
     pagecolor="#505050"
     bordercolor="#eeeeee"
     borderopacity="1"
     inkscape:showpageshadow="0"
     inkscape:pageopacity="0"
     inkscape:pagecheckerboard="0"
     inkscape:deskcolor="#505050"
     inkscape:document-units="mm"
     showgrid="false"
     inkscape:zoom="4.6118459"
     inkscape:cx="122.94427"
     inkscape:cy="108.74171"
     inkscape:window-width="1920"
     inkscape:window-height="1006"
     inkscape:window-x="0"
     inkscape:window-y="44"
     inkscape:window-maximized="1"
     inkscape:current-layer="layer1"><inkscape:page
       x="0"
       y="0"
       width="50.000004"
       height="50"
       id="page49638" /><inkscape:page
       x="182.25148"
       y="-22.039371"
       width="7.3856354"
       height="0"
       id="page49640" /></sodipodi:namedview><defs
     id="defs2" /><g
     inkscape:label="Layer 1"
     inkscape:groupmode="layer"
     id="layer1"
     style="display:inline"
     transform="translate(-16.937613,-152.98013)"><path
       style="display:inline;fill:#39649e;fill-opacity:1;stroke:none;stroke-width:29.919;stroke-linecap:round;stroke-linejoin:round;stroke-dasharray:none;stroke-opacity:1"
       d="M 41.934032,164.15975 A 13.822042,13.822042 0 0 1 55.761578,177.9802 13.822042,13.822042 0 0 1 41.934032,191.80052 13.822042,13.822042 0 0 1 28.113649,177.9802 13.822042,13.822042 0 0 1 41.934032,164.15975 Z"
       id="path41483"
       inkscape:label="original earth" /><path
       style="display:inline;fill:#919380;fill-opacity:1;stroke:none;stroke-width:29.919;stroke-linecap:round;stroke-linejoin:round;stroke-dasharray:none;stroke-opacity:1"
       d="m 61.863512,162.99605 a 3.5563877,3.5563877 0 0 1 3.551766,3.55169 3.5563877,3.5563877 0 0 1 -3.551766,3.5589 3.5563877,3.5563877 0 0 1 -3.558931,-3.5589 3.5563877,3.5563877 0 0 1 3.558931,-3.55169 z"
       id="path41477"
       inkscape:label="moon" /><path
       id="path78575"
       style="display:inline;fill:#425f30;fill-opacity:1;stroke:none;stroke-width:29.919;stroke-linecap:round;stroke-linejoin:round;stroke-dasharray:none;stroke-opacity:1"
       inkscape:label="continents"
       d="M 48.403393 170.85191 C 48.151838 170.84706 47.888397 170.92443 47.600341 171.14801 C 46.832191 171.74421 47.915627 172.75038 46.30843 172.39342 C 44.701231 172.03644 44.049623 170.6043 42.618733 171.48288 C 41.187842 172.36145 42.359099 173.01831 43.895141 173.9804 C 45.431184 174.94248 44.609146 176.5399 44.857873 177.15178 C 45.106598 177.76367 46.57844 179.96446 46.089839 181.03216 C 45.601236 182.09988 44.443936 181.69169 43.878087 182.09928 C 43.312243 182.50687 42.362964 184.3363 42.617182 184.94149 C 42.871401 185.54667 42.740764 186.19274 42.313842 186.58841 C 41.886918 186.98408 40.207772 187.68153 40.288126 188.37745 C 40.368476 189.07337 41.919679 188.92958 42.837324 188.0121 C 43.754969 187.09461 44.69091 189.16264 45.263533 188.63325 C 45.836154 188.10386 45.956044 188.60436 46.636059 187.93355 C 47.316071 187.26275 49.243359 186.44001 48.593045 187.35684 C 47.942731 188.27367 45.525479 189.26307 44.849088 189.27042 C 44.172695 189.27742 44.127678 188.98311 43.6781 188.88026 C 43.177102 188.76565 42.395015 189.19344 41.772273 189.21513 C 41.149529 189.23683 40.787065 189.03625 40.328433 189.34742 C 39.869803 189.65859 39.334844 189.77405 38.642748 190.04867 C 37.950651 190.32329 37.839844 190.97252 38.865474 191.2765 C 39.460317 191.4528 40.792017 191.69689 42.124706 191.79326 A 13.822042 13.822042 0 0 0 52.395914 187.00338 C 52.40568 186.45104 52.496961 184.77054 53.241857 183.45941 C 54.143973 181.87156 55.157566 181.86365 55.334752 180.81667 C 55.511941 179.76968 54.594843 179.05765 54.727554 178.0587 C 54.860269 177.05974 55.688979 175.29768 55.063451 174.01967 C 54.437923 172.74165 54.811742 174.77928 54.378738 174.26307 C 53.945733 173.74686 53.708914 172.06877 52.821728 171.83066 C 51.934538 171.59254 51.820911 173.17159 51.237845 172.78564 C 50.65478 172.3997 51.212114 171.43101 50.985664 171.08445 C 50.759223 170.7379 50.295852 171.53181 49.627607 171.26377 C 49.209956 171.09624 48.822649 170.85998 48.403393 170.85191 z M 39.471638 171.30873 C 38.642594 171.30274 38.735319 172.12098 36.335395 172.58152 C 33.687205 173.08969 33.79109 172.23699 33.363484 172.04667 C 32.935877 171.85635 32.078909 171.86707 30.057226 173.54425 C 28.48777 174.84626 28.297436 178.55714 28.290408 180.15677 A 13.822042 13.822042 0 0 0 30.905753 186.29386 C 30.433194 185.35244 28.951681 182.33724 28.591682 180.76138 C 28.165614 178.8963 28.949841 178.58652 29.13015 178.47366 C 29.31046 178.36079 28.719969 176.54247 29.265026 176.31927 C 29.810082 176.09607 29.987462 176.96022 29.987462 178.44886 C 29.987462 179.9375 30.914212 180.58979 32.046768 181.18668 C 33.179325 181.78357 33.676428 183.24221 34.356188 183.42065 C 35.035948 183.5991 35.01298 182.90584 35.37163 181.49932 C 35.730281 180.0928 36.469323 180.8832 37.129145 180.53142 C 37.788969 180.17964 37.793941 178.91829 38.304267 178.60906 C 38.814594 178.2998 39.827922 179.0507 40.298978 178.66022 C 40.770033 178.26974 39.811728 177.09784 39.366218 176.49807 C 38.920713 175.89831 37.8303 174.9092 39.310924 174.19227 C 40.791549 173.47535 40.927704 171.54697 39.76206 171.33818 C 39.65278 171.31861 39.557401 171.30935 39.471638 171.30873 z M 41.574352 185.06448 C 41.569231 185.06463 41.564424 185.06489 41.559366 185.06551 C 41.235673 185.10531 40.454685 186.13751 40.522737 186.43132 C 40.590787 186.72513 41.823228 187.00553 42.082848 186.47679 C 42.338411 185.95633 41.896963 185.05456 41.574352 185.06448 z " /><path
       style="opacity:1;fill:#919380;fill-opacity:1;stroke:none;stroke-width:2;stroke-linecap:round;stroke-linejoin:round"
       d="m 37.124549,183.2056 c -0.328919,-0.2376 -0.360772,-0.90689 0.205568,-1.58448 0.56634,-0.6776 1.314584,-1.1507 1.53921,-1.5136 0.224625,-0.3629 -0.283656,-0.64369 0.13857,-1.00371 0.422226,-0.36001 2.905385,0.26172 2.392813,1.10334 -0.512571,0.84163 -0.735394,2.12016 -1.350219,2.31774 -0.614824,0.19757 -1.435782,0.034 -1.940464,0.13884 -0.504682,0.10488 -0.382539,0.76097 -0.985478,0.54187 z"
       id="path66557"
       inkscape:label="north pole" /></g></svg>
